<svg width="232" height="40" viewBox="0 0 232 40" fill="none" xmlns="http://www.w3.org/2000/svg">
<path d="M2.014 29V10.45H5.8035V29H2.014ZM17.6211 14.107C20.9071 14.107 22.8946 16.28 22.8946 19.8575V29H19.1051V20.679C19.1051 18.771 18.3896 17.711 16.3756 17.711C14.2291 17.711 13.0896 18.9565 13.0896 21.3415V29H9.30005V14.425H13.0896V16.4125C14.1496 14.9285 15.6071 14.107 17.6211 14.107ZM35.2744 14.425H39.3024L34.2939 29H29.7624L24.7539 14.425H28.7819L32.0149 24.8925L35.2744 14.425ZM47.7193 14.107C52.5423 14.107 55.5368 17.8965 55.1658 22.693H43.9828C44.2213 25.025 45.8113 26.191 47.7723 26.191C49.2298 26.191 50.5018 25.5285 51.0053 24.3625H54.9273C53.8408 27.8075 50.9258 29.318 47.7988 29.318C43.2408 29.318 40.1138 26.085 40.1138 21.739C40.1138 17.3665 43.2673 14.107 47.7193 14.107ZM47.6928 17.234C45.8378 17.234 44.6453 18.347 44.1683 19.9105H51.1378C50.7138 18.3205 49.5213 17.234 47.6928 17.234ZM66.0929 14.107C66.4374 14.107 66.7024 14.1335 66.9409 14.16V18.0555C66.6494 18.029 66.4374 18.0025 66.0134 18.0025C63.6019 18.0025 61.5349 19.0625 61.5349 22.5075V29H57.7454V14.425H61.5349V16.969C62.4359 15.061 64.0259 14.107 66.0929 14.107ZM75.7337 29.318C71.8382 29.318 69.0027 27.41 68.4727 24.2035H72.3152C72.6067 25.3695 73.4812 26.1645 75.8397 26.1645C77.5092 26.1645 78.3042 25.767 78.3042 24.972C78.3042 23.9915 77.1647 23.912 74.9652 23.382C70.8312 22.4015 69.1352 21.474 69.1352 18.9565C69.1352 15.8825 71.6792 14.107 75.5217 14.107C79.5762 14.107 81.5637 16.068 82.0672 18.771H78.2247C77.9332 17.8435 77.1382 17.287 75.3892 17.287C73.8787 17.287 72.9512 17.711 72.9512 18.506C72.9512 19.195 73.6137 19.3275 75.7337 19.8045C79.8942 20.7585 82.2262 21.5535 82.2262 24.4685C82.2262 27.728 79.3377 29.318 75.7337 29.318ZM91.9463 14.107C96.7693 14.107 99.7638 17.8965 99.3928 22.693H88.2098C88.4483 25.025 90.0383 26.191 91.9993 26.191C93.4568 26.191 94.7288 25.5285 95.2323 24.3625H99.1543C98.0678 27.8075 95.1528 29.318 92.0258 29.318C87.4678 29.318 84.3408 26.085 84.3408 21.739C84.3408 17.3665 87.4943 14.107 91.9463 14.107ZM91.9198 17.234C90.0648 17.234 88.8723 18.347 88.3953 19.9105H95.3648C94.9408 18.3205 93.7483 17.234 91.9198 17.234Z" fill="#222222"/>
<path d="M118.901 12.4375C123.088 12.4375 126.48 15.167 126.48 19.566C126.48 23.9385 123.141 26.668 118.901 26.668H117.602V29H113.813V26.668H112.541C108.301 26.668 104.962 23.9385 104.962 19.566C104.962 15.167 108.354 12.4375 112.541 12.4375H113.813V10.45H117.602V12.4375H118.901ZM112.541 23.064H113.813V16.068H112.541C110.421 16.068 108.804 17.181 108.804 19.566C108.804 21.951 110.421 23.064 112.541 23.064ZM118.901 23.064C121.021 23.064 122.637 21.951 122.637 19.566C122.637 17.181 121.021 16.068 118.901 16.068H117.602V23.064H118.901ZM137.709 14.107C141.446 14.107 144.361 17.2075 144.361 21.7125C144.361 26.191 141.499 29.318 137.709 29.318C135.642 29.318 134.132 28.417 133.098 27.039V35.625H129.309V14.425H133.098V16.4655C134.105 15.061 135.669 14.107 137.709 14.107ZM136.835 25.714C138.928 25.714 140.518 24.124 140.518 21.7125C140.518 19.3275 138.955 17.711 136.835 17.711C134.715 17.711 133.098 19.3275 133.098 21.7125C133.098 24.124 134.715 25.714 136.835 25.714ZM156.6 14.425H160.946V29H157.156V23.8325L157.395 19.513L151.379 29H147.007V14.425H150.796V19.5925L150.611 23.859L156.6 14.425ZM167.64 14.425H178.426V29H174.636V18.0025H170.873L169.999 23.3025C169.31 27.622 167.481 29.318 164.831 29.318C164.248 29.318 163.612 29.2385 163.056 29.1325V25.714C163.4 25.767 163.718 25.7935 164.036 25.7935C165.335 25.7935 165.891 25.184 166.262 22.9315L167.64 14.425ZM192.343 14.425H196.133L196.106 29H192.317V27.039C191.31 28.417 189.799 29.318 187.759 29.318C183.943 29.318 181.107 26.191 181.107 21.7125C181.107 17.2075 183.996 14.107 187.732 14.107C189.799 14.107 191.336 15.061 192.343 16.4655V14.425ZM188.607 25.714C190.727 25.714 192.343 24.124 192.343 21.7125C192.343 19.3275 190.727 17.711 188.607 17.711C186.487 17.711 184.923 19.3275 184.923 21.7125C184.923 24.124 186.513 25.714 188.607 25.714ZM209.488 14.425H213.277V29H209.488V23.382H202.942V29H199.153V14.425H202.942V19.8045H209.488V14.425ZM223.545 29.318C219.173 29.318 215.966 26.032 215.966 21.7125C215.966 17.393 219.173 14.107 223.572 14.107C227.123 14.107 230.276 16.2535 230.833 19.9635H226.937C226.487 18.3735 225.109 17.605 223.572 17.605C221.266 17.605 219.782 19.301 219.809 21.7125C219.782 24.1505 221.319 25.82 223.545 25.82C225.109 25.82 226.487 25.025 226.937 23.435H230.833C230.25 27.2775 227.043 29.318 223.545 29.318Z" fill="#366AF3"/>
</svg>
